<svg xmlns="http://www.w3.org/2000/svg" viewBox="0 0 93.78 51.72"><defs><style>.cls-1{fill:#737474;}</style></defs><g id="Layer_2" data-name="Layer 2"><g id="Layer_1-2" data-name="Layer 1"><path class="cls-1" d="M46.89,0C26,0,0,18,0,25.86,0,35.3,24,51.72,46.89,51.72c20.89,0,46.89-16.64,46.89-25.86C93.78,18,68.19,0,46.89,0Zm0,44.89c-16.84,0-38-12.08-38-19,0-5.81,22.63-19,38-19,15.68,0,37.61,13.22,37.61,19C84.48,32.65,62.25,44.89,46.87,44.89Z"/><path class="cls-1" d="M60.78,25.86a14.12,14.12,0,0,1-28.23,0,13.93,13.93,0,0,1,1.67-6.65l12.67,6.65-7.48-12.1a14.11,14.11,0,0,1,21.37,12.1Z"/></g></g></svg>