<svg xmlns="http://www.w3.org/2000/svg" viewBox="0 0 336 101.93">
    <defs>
        <style>
            .cls-1 {
                fill: #f2f2f3;
            }

            .cls-2 {
                font-size: 20px;
                letter-spacing: 0em;
            }

            .cls-10,
            .cls-14,
            .cls-2,
            .cls-7 {
                fill: #231f20;
                font-family: MyriadPro-Regular, Myriad Pro;
            }

            .cls-3 {
                letter-spacing: 0em;
            }

            .cls-4 {
                letter-spacing: 0em;
            }

            .cls-5 {
                letter-spacing: -0.01em;
            }

            .cls-6 {
                letter-spacing: 0em;
            }

            .cls-7 {
                font-size: 12px;
            }

            .cls-8 {
                letter-spacing: -0.01em;
            }

            .cls-9 {
                letter-spacing: 0.01em;
            }

            .cls-10 {
                font-size: 14px;
            }

            .cls-11 {
                letter-spacing: 0em;
            }

            .cls-12 {
                letter-spacing: -0.01em;
            }

            .cls-13 {
                letter-spacing: 0em;
            }

            .cls-14 {
                font-size: 18px;
            }

            .cls-15 {
                letter-spacing: 0.01em;
            }

            .cls-16 {
                letter-spacing: 0em;
            }

            .cls-17 {
                letter-spacing: 0em;
            }

            .cls-18 {
                font-family: MyriadPro-Bold, Myriad Pro;
                font-weight: 700;
            }
        </style>
    </defs>
    <g id="Layer_2" data-name="Layer 2">
        <g id="Layer_1-2" data-name="Layer 1">
            <path class="cls-1"
                d="M327,0H98.76A15.23,15.23,0,0,1,86.47,6.22,15.23,15.23,0,0,1,74.18,0H9A9,9,0,0,1,0,9V92.89a9,9,0,0,1,9,9H74.17a15.26,15.26,0,0,1,24.6,0H327a9,9,0,0,1,9-9V9A9,9,0,0,1,327,0ZM86.47,93.71A2.53,2.53,0,1,1,89,91.18,2.53,2.53,0,0,1,86.47,93.71Zm0-8A2.53,2.53,0,1,1,89,83.13,2.53,2.53,0,0,1,86.47,85.66Zm0-8A2.53,2.53,0,1,1,89,75.13,2.53,2.53,0,0,1,86.47,77.66Zm0-8.11A2.53,2.53,0,1,1,89,67,2.53,2.53,0,0,1,86.47,69.55Zm0-8A2.53,2.53,0,1,1,89,59,2.53,2.53,0,0,1,86.47,61.55Zm0-8A2.53,2.53,0,1,1,89,51,2.53,2.53,0,0,1,86.47,53.55Zm0-8A2.53,2.53,0,1,1,89,43,2.53,2.53,0,0,1,86.47,45.55Zm0-8.22A2.53,2.53,0,1,1,89,34.8,2.53,2.53,0,0,1,86.47,37.33Zm0-8A2.53,2.53,0,1,1,89,26.8,2.53,2.53,0,0,1,86.47,29.33Zm0-8A2.53,2.53,0,1,1,89,18.8,2.53,2.53,0,0,1,86.47,21.33Zm0-8A2.53,2.53,0,1,1,89,10.8,2.53,2.53,0,0,1,86.47,13.33Z" />
            <text class="cls-2" transform="translate(104.62 22.76)">D<tspan class="cls-3" x="13.4" y="0">o</tspan>
                <tspan class="cls-4" x="24.38" y="0">r</tspan>
                <tspan class="cls-3" x="30.82" y="0">a the Explo</tspan>
                <tspan class="cls-5" x="122.86" y="0">r</tspan>
                <tspan class="cls-6" x="129.2" y="0">er</tspan>
            </text><text class="cls-7" transform="translate(105.12 37.33)">
                <tspan class="cls-8">A</tspan>
                <tspan class="cls-9" x="7.2" y="0">c</tspan>
                <tspan x="12.73" y="0">tion / PG 13</tspan>
            </text><text class="cls-10" transform="translate(104.47 75.13)">
                <tspan class="cls-11">B</tspan>
                <tspan x="7.64" y="0">e</tspan>
                <tspan class="cls-12" x="14.66" y="0">t</tspan>
                <tspan class="cls-13" x="19.21" y="0">ongsalongen</tspan>
            </text><text class="cls-10" transform="translate(105.53 91.18)">2021/05/12 19:00-21:00</text><text
                class="cls-14" transform="translate(292.12 45.55)">
                <tspan class="cls-15">S</tspan>
                <tspan class="cls-16" x="8.98" y="0">e</tspan>
                <tspan class="cls-17" x="18" y="0">a</tspan>
                <tspan x="26.6" y="0">t</tspan>
                <tspan class="cls-18">
                    <tspan x="0.39" y="21.6">A36</tspan>
                </tspan>
            </text>
        </g>
    </g>
</svg>