<svg xmlns="http://www.w3.org/2000/svg" viewBox="0 0 249.53 101.93">
    <defs>
        <style>
            .cls-1 {
                fill: #f2f2f3;
            }

            .cls-2 {
                font-size: 19px;
            }

            .cls-10,
            .cls-2,
            .cls-7 {
                fill: #231f20;
                font-family: MyriadPro-Regular, Myriad Pro;
            }

            .cls-3 {
                letter-spacing: -0.01em;
            }

            .cls-4 {
                letter-spacing: -0.01em;
            }

            .cls-5 {
                letter-spacing: -0.01em;
            }

            .cls-6 {
                letter-spacing: 0em;
            }

            .cls-7 {
                font-size: 11px;
            }

            .cls-8 {
                letter-spacing: -0.01em;
            }

            .cls-9 {
                letter-spacing: 0.01em;
            }

            .cls-10 {
                font-size: 14px;
            }

            .cls-11 {
                letter-spacing: 0em;
            }

            .cls-12 {
                letter-spacing: -0.01em;
            }

            .cls-13 {
                letter-spacing: 0em;
            }

            .cls-14 {
                letter-spacing: 0.01em;
            }

            .cls-15 {
                letter-spacing: 0em;
            }

            .cls-16,
            .cls-20,
            .cls-21 {
                font-family: MyriadPro-Bold, Myriad Pro;
                font-weight: 700;
            }

            .cls-17 {
                letter-spacing: 0em;
            }

            .cls-18 {
                letter-spacing: -0.01em;
            }

            .cls-19 {
                letter-spacing: 0.01em;
            }

            .cls-20 {
                letter-spacing: 0.01em;
            }

            .cls-21 {
                letter-spacing: 0em;
            }
        </style>
    </defs>
    <g id="Layer_2" data-name="Layer 2">
        <g id="Layer_1-2" data-name="Layer 1">
            <path class="cls-1"
                d="M247,18.8a2.53,2.53,0,0,0,2.53,2.53v2.94a2.53,2.53,0,0,0,0,5.06v2.94a2.53,2.53,0,0,0,0,5.06v3.16a2.53,2.53,0,0,0,0,5.06v2.94a2.53,2.53,0,0,0,0,5.06v2.94a2.53,2.53,0,0,0,0,5.06v2.94a2.53,2.53,0,1,0,0,5.06v3a2.53,2.53,0,1,0,0,5.06V80.6a2.53,2.53,0,1,0,0,5.06v3a2.53,2.53,0,0,0-1.7,4.4,9,9,0,0,0-7.33,8.88H9A9,9,0,0,0,1.7,93.05a2.51,2.51,0,0,0,.83-1.87A2.53,2.53,0,0,0,0,88.65v-3a2.53,2.53,0,0,0,2.53-2.53A2.53,2.53,0,0,0,0,80.6V77.66a2.53,2.53,0,0,0,2.53-2.53A2.53,2.53,0,0,0,0,72.6v-3a2.53,2.53,0,0,0,0-5.06V61.55a2.53,2.53,0,1,0,0-5.06V53.55a2.53,2.53,0,1,0,0-5.06V45.55a2.53,2.53,0,1,0,0-5.06V37.33A2.53,2.53,0,0,0,2.53,34.8,2.53,2.53,0,0,0,0,32.27V29.33A2.53,2.53,0,0,0,2.53,26.8,2.53,2.53,0,0,0,0,24.27V21.33A2.53,2.53,0,0,0,2.53,18.8,2.53,2.53,0,0,0,0,16.27V13.33A2.53,2.53,0,0,0,2.53,10.8a2.51,2.51,0,0,0-.88-1.91A9.05,9.05,0,0,0,9,0H240.5a9,9,0,0,0,7.38,8.89,2.52,2.52,0,0,0,1.65,4.44v2.94A2.54,2.54,0,0,0,247,18.8Z" />
            <text class="cls-2" transform="translate(18.15 22.76)">
                <tspan class="cls-3">T</tspan>
                <tspan x="9.31" y="0">he Sh</tspan>
                <tspan class="cls-4" x="53.31" y="0">a</tspan>
                <tspan class="cls-5" x="62.32" y="0">w</tspan>
                <tspan x="76.19" y="0">shank </tspan>
                <tspan class="cls-6" x="126.9" y="0">R</tspan>
                <tspan x="137.2" y="0">edemption</tspan>
            </text><text class="cls-7" transform="translate(18.65 35.33)">
                <tspan class="cls-8">A</tspan>
                <tspan class="cls-9" x="6.6" y="0">c</tspan>
                <tspan x="11.67" y="0">tion / PG 13</tspan>
            </text><text class="cls-10" transform="translate(18 75.13)">
                <tspan class="cls-11">B</tspan>
                <tspan x="7.64" y="0">e</tspan>
                <tspan class="cls-12" x="14.66" y="0">t</tspan>
                <tspan class="cls-13" x="19.21" y="0">ongsalongen</tspan>
            </text><text class="cls-10" transform="translate(19.06 91.18)">2021/05/12 19:00-21:00</text><text
                class="cls-10" transform="translate(207.98 75.13)">
                <tspan class="cls-14">S</tspan>
                <tspan x="6.99" y="0">e</tspan>
                <tspan class="cls-15" x="14" y="0">a</tspan>
                <tspan x="20.69" y="0">t</tspan>
                <tspan class="cls-16">
                    <tspan x="4.89" y="15">36</tspan>
                </tspan>
            </text><text class="cls-10" transform="translate(207.21 42.08)">
                <tspan class="cls-17">R</tspan>
                <tspan class="cls-18" x="7.59" y="0">o</tspan>
                <tspan x="15.18" y="0">w</tspan>
                <tspan class="cls-16">
                    <tspan x="8.86" y="15">3</tspan>
                </tspan>
            </text><text class="cls-10" transform="translate(18.18 50.67)">
                <tspan class="cls-17">R</tspan>
                <tspan x="7.59" y="0">egula</tspan>
                <tspan class="cls-19" x="40.19" y="0">r</tspan>
                <tspan x="44.9" y="0">: </tspan>
                <tspan class="cls-16" x="50.76" y="0">160</tspan>
                <tspan class="cls-20" x="74.07" y="0">k</tspan>
                <tspan class="cls-21" x="81.8" y="0">r</tspan>
            </text>
        </g>
    </g>
</svg>